<svg xmlns="http://www.w3.org/2000/svg" xmlns:xlink="http://www.w3.org/1999/xlink" version="1.1" id="Layer_1" x="0px" y="0px" viewBox="0 0 48 48" style="enable-background:new 0 0 48 48;" xml:space="preserve" width="48" height="48">
<path style="fill:none;" d="M6.97,9c0.576,0.322,1.88,0.717,3.875,1.07c1.092-1.012,2.294-1.9,3.6-2.635  C10.351,7.861,7.84,8.512,6.97,9z"/>
<circle style="fill:#FFCA28;" cx="24" cy="24" r="19"/>
<circle style="fill:#6D4C41;" cx="17" cy="23" r="4"/>
<circle style="fill:#FFFFFF;" cx="15.5" cy="21.5" r="1.5"/>
<circle style="fill:#6D4C41;" cx="31" cy="23" r="4"/>
<circle style="fill:#FFFFFF;" cx="29.5" cy="21.5" r="1.5"/>
<path style="fill:none;stroke:#B76C09;stroke-width:2;" d="M28,32c0,2.209-1.791,4-4,4s-4-1.791-4-4"/>
<path style="fill:none;" d="M33.026,7.436c1.306,0.734,2.508,1.623,3.599,2.635C38.62,9.717,39.925,9.322,40.5,9  C39.631,8.512,37.12,7.861,33.026,7.436z"/>
<path style="fill:#FFEB3B;" d="M23.735,5c3.377,0,6.542,0.891,9.291,2.436C37.12,7.861,39.631,8.512,40.5,9  c-0.575,0.322-1.88,0.717-3.875,1.07C33.76,10.578,29.457,11,23.735,11s-10.024-0.422-12.891-0.93C8.85,9.717,7.546,9.322,6.97,9  c0.87-0.488,3.381-1.139,7.475-1.564C17.192,5.891,20.357,5,23.735,5c-3.173,0-19,0.191-19,4c0,1.309,1.871,2.191,4.456,2.785  C14.124,12.918,21.653,13,23.735,13s9.611-0.082,14.543-1.215c2.585-0.594,4.457-1.477,4.457-2.785C42.735,5.191,26.908,5,23.735,5z  "/>
</svg>