<?xml version="1.0" encoding="iso-8859-1"?>
<!-- Generator: Adobe Illustrator 19.1.1, SVG Export Plug-In . SVG Version: 6.00 Build 0)  -->
<svg xmlns="http://www.w3.org/2000/svg" xmlns:xlink="http://www.w3.org/1999/xlink" version="1.1" id="Layer_1" x="0px" y="0px" viewBox="0 0 48 48" style="enable-background:new 0 0 48 48;" xml:space="preserve">
<circle style="fill:#FFCA28;" cx="24" cy="24" r="19"/>
<path style="fill:none;stroke:#B76C09;stroke-width:2;" d="M30,33.991c-4.206-6.461-7.298,5.474-12-0.991"/>
<path style="fill:#FF3D00;" d="M37.063,19.511L26,24.199c0,0,2.72,4.33,7.058,2.223C36.219,24.886,37.063,19.511,37.063,19.511z"/>
<circle style="fill:#FF3D00;" cx="31.188" cy="22.886" r="4"/>
<circle cx="31.188" cy="22.886" r="2"/>
<path style="fill:#FFCA28;" d="M37.063,19.511L26,24.199c0,0,0.188-5.313,3.188-6.313S37.063,19.511,37.063,19.511z"/>
<path style="fill:#FF3D00;" d="M10.938,19.511L22,24.199c0,0-2.721,4.33-7.059,2.223C11.781,24.886,10.938,19.511,10.938,19.511z"/>
<circle style="fill:#FF3D00;" cx="17" cy="23" r="4"/>
<circle cx="17" cy="23" r="2"/>
<path style="fill:#FFCA28;" d="M10.938,19.511L22,24.199c0,0-0.187-5.313-3.187-6.313S10.938,19.511,10.938,19.511z"/>
</svg>
