<svg xmlns="http://www.w3.org/2000/svg" xmlns:xlink="http://www.w3.org/1999/xlink" version="1.1" id="Layer_1" x="0px" y="0px" viewBox="0 0 48 48" style="enable-background:new 0 0 48 48;" xml:space="preserve" width="48" height="48">
<circle style="fill:#FFCA28;" cx="24" cy="24" r="19"/>
<path style="fill:#37474F;" d="M22,22c0,1.106,0,6-6,6l0,0c-4,0-7-4-7-6l0,0c0-2,1-3,3-3h7C20.104,19,22,20,22,22L22,22z"/>
<path style="fill:#37474F;" d="M26,22c0,1.106,0,6,6,6l0,0c4,0,7-4,7-6l0,0c0-2-1-3-3-3h-7C27.896,19,26,20,26,22L26,22z"/>
<path style="fill:none;stroke:#37474F;stroke-width:2;" d="M21,23c0,0,0-2,3-2s3,2,3,2"/>
<path style="fill:none;stroke:#B76C09;stroke-width:2;" d="M30,31c0,0-1.05,5-6,5c-4.028,0-4-3-4-3"/>
</svg>