<svg xmlns="http://www.w3.org/2000/svg" xmlns:xlink="http://www.w3.org/1999/xlink" version="1.1" id="Layer_1" x="0px" y="0px" viewBox="0 0 48 48" style="enable-background:new 0 0 48 48;" xml:space="preserve" width="48" height="48">
<path style="fill:#FBE9E7;" d="M37.062,22.312L26,27c0,0,2.72,4.33,7.058,2.223C36.219,27.687,37.062,22.312,37.062,22.312z"/>
<circle cx="31.187" cy="25.687" r="2"/>
<path style="fill:#F44336;" d="M37.062,22.312L26,27c0,0,0.187-5.312,3.187-6.312S37.062,22.312,37.062,22.312z"/>
<path style="fill:#FBE9E7;" d="M11,22.511l11.062,4.688c0,0-2.721,4.33-7.059,2.223C11.844,27.886,11,22.511,11,22.511z"/>
<circle cx="16.875" cy="25.886" r="2"/>
<path style="fill:#F44336;" d="M11,22.511l11.062,4.688c0,0-0.187-5.313-3.187-6.313S11,22.511,11,22.511z"/>
<path style="fill:#B71C1C;" d="M34.16,9.945C34.16,9.945,39,10,41,4c0.687,1.438,2.849,9.125-0.264,13  C37.625,20.875,30.57,10.951,34.16,9.945z"/>
<path style="fill:#B71C1C;" d="M14.006,9.945c0,0-4.84,0.055-6.84-5.945c-0.688,1.438-2.849,9.125,0.263,13  C10.541,20.875,17.596,10.951,14.006,9.945z"/>
<polyline style="fill:none;stroke:#D32F2F;stroke-width:2;" points="38,21 24,27 10,21 "/>
<polygon style="fill:#FFFFFF;" points="24,36 27,41 29,36 32,39 34,34 "/>
<polygon style="fill:#FFFFFF;" points="24,36 21,41 19,36 16,39 14,34 "/>
<path style="fill:none;stroke:#D32F2F;stroke-width:2;" d="M13,33.186c0,0,10,6.334,22,0"/>
<circle style="fill:#F44336;" cx="24" cy="26" r="19"/>
<path style="fill:#FFFFFF;" d="M37.062,22.511L26,27.199c0,0,2.72,4.33,7.058,2.223C36.219,27.886,37.062,22.511,37.062,22.511z"/>
<circle cx="31.187" cy="25.886" r="2"/>
<path style="fill:#F44336;" d="M37.062,22.312L26,27c0,0,0.187-5.312,3.187-6.312S37.062,22.312,37.062,22.312z"/>
<path style="fill:#FFFFFF;" d="M11,22.511l11.062,4.688c0,0-2.721,4.33-7.059,2.223C11.844,27.886,11,22.511,11,22.511z"/>
<circle cx="16.875" cy="25.886" r="2"/>
<path style="fill:#F44336;" d="M11,22.511l11.062,4.688c0,0-0.187-5.313-3.187-6.313S11,22.511,11,22.511z"/>
<path style="fill:#B71C1C;" d="M34.16,9.945C34.16,9.945,39,10,41,4c0.687,1.438,2.849,9.125-0.264,13  C37.625,20.875,30.57,10.951,34.16,9.945z"/>
<path style="fill:#B71C1C;" d="M14.006,9.945c0,0-4.84,0.055-6.84-5.945c-0.688,1.438-2.849,9.125,0.263,13  C10.541,20.875,17.596,10.951,14.006,9.945z"/>
<polyline style="fill:none;stroke:#D32F2F;stroke-width:2;" points="38,21 24,27 10,21 "/>
<polygon style="fill:#FFFFFF;" points="22,36 20,41 18,36 "/>
<polygon style="fill:#FFFFFF;" points="30,36 28,41 26,36 "/>
<line style="fill:none;stroke:#D32F2F;stroke-width:2;" x1="30" y1="35" x2="18" y2="35"/>
</svg>