<svg xmlns="http://www.w3.org/2000/svg" xmlns:xlink="http://www.w3.org/1999/xlink" viewBox="0 0 48 48" version="1.1" width="48" height="48">
<g id="surface1">
<path style=" fill:#827717;" d="M 15.007813 28.582031 C 15.007813 31.019531 14.21875 32.992188 12.007813 32.992188 C 9.800781 32.992188 8.007813 29.914063 8.007813 27.480469 C 8.007813 24.480469 8.007813 20.074219 12.007813 23.378906 C 16.007813 26.683594 15.007813 26.148438 15.007813 28.582031 "/>
<path style=" fill:#827717;" d="M 33 28.378906 C 33 30.816406 33.789063 32.789063 36 32.789063 C 38.210938 32.789063 40 29.710938 40 27.277344 C 40 24.277344 40 19.871094 36 23.175781 C 32 26.480469 33 25.945313 33 28.378906 "/>
<path style=" fill:#AFB42B;" d="M 36 34.570313 C 36 39.824219 31.605469 44 26.183594 44 L 21.820313 44 C 16.394531 44 12 39.824219 12 34.570313 L 12 16.597656 C 12 11.34375 16.394531 7.082031 21.816406 7.082031 L 26.179688 7.082031 C 31.601563 7.082031 36 11.34375 36 16.597656 Z "/>
<path style=" fill:#263238;" d="M 18 38 C 21.375 34.800781 30 34 30 34 C 30 34 30.457031 37.90625 26 37 C 22.28125 36.242188 18 38 18 38 Z "/>
<path style="fill:none;stroke-width:2;stroke-linecap:round;stroke-linejoin:miter;stroke:#9E9D24;stroke-opacity:1;stroke-miterlimit:4;" d="M 15 25 C 15 23.894531 15.894531 24 17 24 L 31 24 C 32.105469 24 33 23.894531 33 25 "/>
<path style="fill:none;stroke-width:2;stroke-linecap:round;stroke-linejoin:miter;stroke:#827717;stroke-opacity:1;stroke-miterlimit:4;" d="M 15 8.082031 L 25 20.082031 "/>
<path style="fill:none;stroke-width:2;stroke-linecap:round;stroke-linejoin:miter;stroke:#827717;stroke-opacity:1;stroke-miterlimit:4;" d="M 21 19.082031 L 25 15.597656 "/>
<path style="fill:none;stroke-width:2;stroke-linecap:round;stroke-linejoin:miter;stroke:#827717;stroke-opacity:1;stroke-miterlimit:4;" d="M 18.414063 16.082031 L 22.292969 12.664063 "/>
<path style=" fill:#827717;" d="M 24 25 C 24 27.761719 21.761719 30 19 30 C 16.238281 30 14 27.761719 14 25 Z "/>
<path style=" fill:#827717;" d="M 34 25 C 34 27.761719 31.761719 30 29 30 C 26.238281 30 24 27.761719 24 25 Z "/>
<path style=" fill:#E3F2FD;" d="M 22 25 C 22 26.65625 20.65625 28 19 28 C 17.34375 28 16 26.65625 16 25 Z "/>
<path style=" fill:#E3F2FD;" d="M 32 25 C 32 26.65625 30.65625 28 29 28 C 27.34375 28 26 26.65625 26 25 Z "/>
<path style=" fill:#37474F;" d="M 18 25 L 21 25 C 21 25.828125 20.328125 26.5 19.5 26.5 C 18.671875 26.5 18 25.828125 18 25 Z "/>
<path style=" fill:#37474F;" d="M 27 25 L 30 25 C 30 25.828125 29.328125 26.5 28.5 26.5 C 27.671875 26.5 27 25.828125 27 25 Z "/>
<path style=" fill:#37474F;" d="M 29 4 C 28.816406 4 19.183594 4 19 4 C 11 4 10 6 10 13 C 10 13.492188 10 22 10 22 C 10 22 11.714844 23.714844 13 25 C 13 10.46875 12 10 23 10 L 25 10 C 36 10 35 10.46875 35 25 C 36.285156 23.714844 38 22 38 22 C 38 22 38 13.492188 38 13 C 38 6 37 4 29 4 Z "/>
</g>
</svg>