<svg xmlns="http://www.w3.org/2000/svg" xmlns:xlink="http://www.w3.org/1999/xlink" viewBox="0 0 48 48" version="1.1" width="48" height="48">
<g id="surface1">
<path style=" fill:#BBDEFB;" d="M 36 17 C 32.542969 16.214844 34.328125 5 24 5 C 13.671875 5 15.457031 16.214844 12 17 C 6 20.273438 6 29 6 29 C 9 29.003906 11 31 12 32 C 13 33 13 37 17.9375 37.9375 C 19 38.003906 20 41.996094 24 42 C 28 42.003906 29 38.003906 30.0625 37.9375 C 35 37 35 33 36 32 C 37 31 39 29.003906 42 29 C 42 29 42 20.273438 36 17 Z "/>
<path style=" fill:#455A64;" d="M 28 15.5 C 28 14.121094 27.105469 13 26 13 C 24.894531 13 24 14.121094 24 15.5 C 24 16.878906 24.894531 18 26 18 C 27.105469 18 28 16.878906 28 15.5 Z "/>
<path style=" fill:#455A64;" d="M 22 15.5 C 22 14.121094 21.105469 13 20 13 C 18.894531 13 18 14.121094 18 15.5 C 18 16.878906 18.894531 18 20 18 C 21.105469 18 22 16.878906 22 15.5 Z "/>
<path style=" fill:#90CAF9;" d="M 16.90625 37.71875 C 16.488281 37.589844 16.125 37.433594 15.785156 37.265625 C 15.945313 35.304688 16.671875 28.855469 19.558594 24.1875 C 17.683594 29.5625 17.808594 37.9375 17.808594 37.9375 C 17.480469 37.878906 17.191406 37.800781 16.90625 37.71875 Z "/>
<path style=" fill:#90CAF9;" d="M 14.828125 21.25 C 11.867188 27.835938 11.867188 32 11.867188 32 C 11.4375 31.570313 10.804688 30.953125 10 30.390625 C 10.59375 26.207031 13.332031 23.085938 14.828125 21.25 Z "/>
<path style=" fill:#90CAF9;" d="M 30.960938 37.71875 C 31.378906 37.589844 31.742188 37.433594 32.082031 37.265625 C 31.921875 35.304688 31.195313 28.855469 28.3125 24.1875 C 30.1875 29.5625 30.0625 37.9375 30.0625 37.9375 C 30.386719 37.878906 30.675781 37.800781 30.960938 37.71875 Z "/>
<path style=" fill:#90CAF9;" d="M 33.042969 21.25 C 36 27.835938 36 32 36 32 C 36.433594 31.570313 37.0625 30.953125 37.867188 30.390625 C 37.277344 26.207031 34.535156 23.085938 33.042969 21.25 Z "/>
</g>
</svg>