<svg xmlns="http://www.w3.org/2000/svg" xmlns:xlink="http://www.w3.org/1999/xlink" version="1.1" id="Layer_1" x="0px" y="0px" viewBox="0 0 48 48" style="enable-background:new 0 0 48 48;" xml:space="preserve" width="48" height="48">
<circle style="fill:#FFCA28;" cx="24" cy="24" r="19"/>
<path style="fill:none;stroke:#B76C09;stroke-width:2;" d="M28,32c0,2.209-1.791,4-4,4s-4-1.791-4-4"/>
<path style="fill:#F44336;" d="M19,19c-1.044,0-1.963,0.535-2.5,1.344C15.963,19.535,15.044,19,14,19c-1.657,0-3,1.344-3,3  c0,2.986,5.5,6,5.5,6s5.5-2.988,5.5-6C22,20.344,20.656,19,19,19"/>
<path style="fill:#F44336;" d="M34,19c-1.044,0-1.963,0.535-2.5,1.344C30.963,19.535,30.044,19,29,19c-1.657,0-3,1.344-3,3  c0,2.986,5.5,6,5.5,6s5.5-2.988,5.5-6C37,20.344,35.656,19,34,19"/>
<circle style="fill:#FFFFFF;" cx="13.5" cy="21.5" r="1.5"/>
<circle style="fill:#FFFFFF;" cx="28.5" cy="21.5" r="1.5"/>
</svg>