<svg xmlns="http://www.w3.org/2000/svg" xmlns:xlink="http://www.w3.org/1999/xlink" viewBox="0 0 48 48" version="1.1" width="48" height="48">
<g id="surface1">
<path style=" fill:#CFD8DC;" d="M 24 44 C 14.425781 44 7 31.546875 7 20.832031 C 7 10.605469 13.675781 4 24 4 C 34.324219 4 41 10.605469 41 20.832031 C 41 31.546875 33.574219 44 24 44 Z "/>
<path style=" fill:#B0BEC5;" d="M 8.597656 12.996094 C 11.964844 13.121094 28.402344 14.066406 40.988281 20.578125 C 40.980469 19.792969 40.925781 19.035156 40.839844 18.292969 C 28.886719 12.46875 14.445313 11.292969 9.628906 11.0625 C 9.238281 11.667969 8.902344 12.320313 8.597656 12.996094 Z "/>
<path style=" fill:#B0BEC5;" d="M 7.371094 25.09375 C 11.707031 27.808594 22.785156 33.96875 36.5 35.8125 C 36.882813 35.214844 37.246094 34.597656 37.589844 33.960938 C 22.160156 32.101563 9.671875 24.269531 7.066406 22.539063 C 7.125 23.390625 7.226563 24.242188 7.371094 25.09375 Z "/>
<path style=" fill:#B0BEC5;" d="M 33.132813 39.933594 C 22.851563 38.796875 12.007813 32.148438 8.628906 29.925781 C 9.019531 31.023438 9.472656 32.09375 9.984375 33.125 C 14.507813 35.878906 22.710938 40.246094 31.054688 41.636719 C 31.773438 41.136719 32.46875 40.566406 33.132813 39.933594 Z "/>
<path style=" fill:#B0BEC5;" d="M 38.816406 11.839844 C 38.425781 11.136719 37.992188 10.46875 37.503906 9.851563 C 29.921875 9.988281 23.851563 12.964844 23.558594 13.109375 L 24.441406 14.878906 C 24.511719 14.839844 31.085938 11.628906 38.816406 11.839844 Z "/>
<path style=" fill:#B0BEC5;" d="M 31.167969 5.257813 C 21.921875 6.464844 15.351563 11.578125 15.039063 11.824219 L 16.265625 13.371094 C 16.34375 13.308594 24.199219 7.222656 34.433594 6.996094 C 33.4375 6.304688 32.351563 5.71875 31.167969 5.257813 Z "/>
<path style=" fill:#5D4037;" d="M 24 16.996094 C 18.917969 16.996094 12.238281 17.621094 7.09375 18.84375 C 7.035156 19.492188 7 20.152344 7 20.832031 C 7 23.53125 7.472656 26.347656 8.332031 29.039063 C 12.277344 29.46875 19.125 30.003906 23.871094 30.003906 C 23.914063 30.003906 23.957031 30.003906 24 30.003906 C 24.042969 30.003906 24.085938 30.003906 24.128906 30.003906 C 28.875 30.003906 35.722656 29.46875 39.667969 29.039063 C 40.527344 26.347656 41 23.53125 41 20.832031 C 41 20.152344 40.964844 19.492188 40.90625 18.84375 C 35.761719 17.621094 29.082031 16.996094 24 16.996094 Z "/>
<path style=" fill:#827717;" d="M 24 18.996094 C 19.148438 18.996094 13.441406 19.5625 9.003906 20.472656 C 9 20.59375 9 20.710938 9 20.832031 C 9 22.871094 9.300781 25.046875 9.875 27.1875 C 14.0625 27.601563 19.816406 28.003906 23.871094 28.003906 L 24.128906 28.003906 C 28.183594 28.003906 33.9375 27.601563 38.125 27.1875 C 38.699219 25.046875 39 22.871094 39 20.832031 C 39 20.710938 39 20.59375 38.996094 20.472656 C 34.558594 19.5625 28.855469 18.996094 24 18.996094 Z "/>
<path style=" fill:#5B4F0A;" d="M 31.007813 27.003906 C 28.003906 27.003906 27.003906 24 27.003906 24 L 37.011719 20.277344 C 37.011719 20.277344 36.007813 27.003906 31.007813 27.003906 Z "/>
<path style=" fill:#5B4F0A;" d="M 10.988281 20.277344 L 20.996094 24 C 20.996094 24 19.996094 27.003906 16.992188 27.003906 C 11.992188 27.003906 10.988281 20.277344 10.988281 20.277344 Z "/>
<path style=" fill:#76FF03;" d="M 30.484375 26 C 28.136719 26 27.003906 24 27.003906 24 L 35.007813 20.996094 C 35.007813 20.996094 33.921875 26 30.484375 26 Z "/>
<path style=" fill:#76FF03;" d="M 12.992188 20.996094 L 20.996094 24 C 20.996094 24 19.863281 26 17.515625 26 C 14.078125 26 12.992188 20.996094 12.992188 20.996094 Z "/>
</g>
</svg>