<svg xmlns="http://www.w3.org/2000/svg" xmlns:xlink="http://www.w3.org/1999/xlink" version="1.1" id="Layer_1" x="0px" y="0px" viewBox="0 0 48 48" style="enable-background:new 0 0 48 48;" xml:space="preserve" width="48" height="48">
<circle style="fill:#FFCA28;" cx="24" cy="24" r="19"/>
<g>
	<path style="fill:#FFFFFF;" d="M16,29c-2.757,0-5-2.243-5-5s2.243-5,5-5s5,2.243,5,5S18.757,29,16,29z"/>
	<path style="fill:#3F51B5;" d="M16,20c2.208,0,4,1.791,4,4s-1.792,4-4,4c-2.209,0-4-1.791-4-4S13.791,20,16,20 M16,18   c-3.308,0-6,2.692-6,6s2.692,6,6,6s6-2.692,6-6S19.308,18,16,18L16,18z"/>
</g>
<circle style="fill:#1976D2;" cx="16.5" cy="25.5" r="1.5"/>
<g>
	<path style="fill:#FFFFFF;" d="M32,29c-2.757,0-5-2.243-5-5s2.243-5,5-5s5,2.243,5,5S34.757,29,32,29z"/>
	<path style="fill:#3F51B5;" d="M32,20c2.208,0,4,1.791,4,4s-1.792,4-4,4c-2.209,0-4-1.791-4-4S29.791,20,32,20 M32,18   c-3.308,0-6,2.692-6,6s2.692,6,6,6s6-2.692,6-6S35.308,18,32,18L32,18z"/>
</g>
<circle style="fill:#1976D2;" cx="31.5" cy="25.5" r="1.5"/>
<path style="fill:none;stroke:#3F51B5;stroke-width:2;" d="M21,25c0,0,1-2,3-2s3,2,3,2"/>
<path style="fill:none;stroke:#B76C09;stroke-width:2;" d="M28,36c0-2.209-1.791-4-4-4s-4,1.791-4,4"/>
</svg>