<svg xmlns="http://www.w3.org/2000/svg" xmlns:xlink="http://www.w3.org/1999/xlink" version="1.1" id="Layer_1" x="0px" y="0px" viewBox="0 0 48 48" style="enable-background:new 0 0 48 48;" xml:space="preserve" width="48" height="48">
<g>
	<path style="fill:#7CB342;" d="M35,13.955c0,0,3.375-4.355,10,0.045c0,0-3.24,1.204-4,3.978c-0.278,1.017-8-2.175-8-2.175   L35,13.955z"/>
	<path style="fill:#7CB342;" d="M12.167,13.955c0,0-3.094-4.355-9.167,0.045c0,0,2.97,1.204,3.667,3.978   C6.922,18.994,14,15.803,14,15.803L12.167,13.955z"/>
</g>
<g>
	<path style="fill:#558B2F;" d="M45,14c0,0-3.268,1.517-5,7c-0.75,2.375-6,0-6-2.453C34,18,37.667,10.629,45,14z"/>
	<path style="fill:#558B2F;" d="M3,14c0,0,2.996,1.517,4.583,7c0.687,2.375,5.5,0,5.5-2.453C13.083,18,9.722,10.629,3,14z"/>
</g>
<g>
	<path style="fill:#689F38;" d="M33.01,35c1.991,3.75,7.99-1,7.99-1s-3.978-7-3.978-14C37.022,20,23.982,18,33.01,35z"/>
	<path style="fill:#689F38;" d="M14.983,35C12.994,38.75,7,34,7,34s3.974-7,3.974-14C10.974,20,24.002,18,14.983,35z"/>
</g>
<path style="fill:#7CB342;" d="M33.023,22c1.001-2,2.762-1.72,4.003-2c0.751-0.17,1.972-0.37,1.972-2c0-2-2.692-3.22-3.003-4  c-1.992-4.98-5.054-7.98-11.98-8c-6.938,0.02-10.006,3.02-12.001,8c-0.311,0.78-3.008,2-3.008,4c0,1.63,1.223,1.83,1.975,2  c1.243,0.28,3.008,0,4.011,2c2.005,4-3.008,7-7.991,12c-0.03,4,1.975,8,4.983,8c4.011,0,7.018-1,12.031-1c5.004,0,8.007,1,12.01,1  c3.003,0,5.004-4,4.974-8C36.025,29,31.021,26,33.023,22z"/>
<g>
	<path style="fill:#689F38;" d="M37.814,35.159c-1.845,2.936-6.369-3.079-13.824-3.079s-12.076,6.104-13.824,3.079   C12,40,16.544,35,24,35S36,40,37.814,35.159z"/>
	<path style="fill:#689F38;" d="M19,15c0-3.9-1-0.571-3-0.571c-1,0-1.477-1.422-2.729-1.422c0,0-2.009-0.193-0.975,1.456   c1.033,1.649,1.322,2.246,1.95,2.912c0.421,0.446,1.384,1.151,2.925,0C17.882,16.844,19,16,19,15z"/>
	<path style="fill:#689F38;" d="M28,15c0-3.9,1-0.571,3-0.571c1,0,1.477-1.422,2.729-1.422c0,0,2.009-0.193,0.975,1.456   c-1.033,1.649-1.322,2.246-1.95,2.912c-0.421,0.446-1.384,1.151-2.925,0C29.118,16.844,28,16,28,15z"/>
</g>
<g>
	<path style="fill:#558B2F;" d="M24,15.694v2.614c0,0.615,0.589,0.923,0.933,0.488l0.814-1.027c0.337-0.426,0.337-1.116,0-1.541   l-0.81-1.023C24.591,14.768,24,15.077,24,15.694z"/>
	<path style="fill:#558B2F;" d="M23,15.694v2.614c0,0.615-0.589,0.923-0.933,0.488l-0.814-1.027c-0.337-0.426-0.337-1.116,0-1.541   l0.81-1.023C22.409,14.768,23,15.077,23,15.694z"/>
</g>
<g>
	<path style="fill:#FFECB3;" d="M20.21,26.92l-1.37,1.2l-1-2.12l-0.68,0.73c0.19-1.51,0.59-3.09,1.35-4.44   c0.25-0.46,0.94-0.32,0.99,0.2C19.6,23.61,19.8,25.24,20.21,26.92z"/>
	<path style="fill:#FFECB3;" d="M25.25,27.75l-1.48-0.49l0.29-1.02c0.1-0.34,0.57-0.35,0.68-0.02L25.25,27.75z"/>
	<path style="fill:#FFECB3;" d="M31,27.53v1.22l-1.74-0.43l0.82-1.09C30.37,26.83,31,27.04,31,27.53z"/>
</g>
<g>
	<path style="fill:#FFE082;" d="M21,29.5C19.31,31,17.27,33,17.27,33s-0.53-3-0.11-6.27l0.687-0.942l0.986,2.097l1.343-1.108   C20.376,27.647,20.67,28.67,21,29.5z"/>
	<polygon style="fill:#FFE082;" points="26,30 23,30 23.799,27.156 25.188,27.565  "/>
	<polygon style="fill:#FFE082;" points="31,28.63 31,31 28,30 29.362,28.185  "/>
</g>
<g>
	<circle style="fill:#D84315;" cx="31" cy="13" r="3"/>
	<circle style="fill:#D84315;" cx="16" cy="13" r="3"/>
</g>
<g>
	<path style="fill:#9CCC65;" d="M37.814,35.159c-1.845,2.936-6.369-3.079-13.824-3.079s-12.076,6.104-13.824,3.079   C8.76,32.727,16.572,29,24.027,29S39.313,32.774,37.814,35.159z"/>
	<path style="fill:#9CCC65;" d="M26.929,10.914c-3.9,0-0.975,4.076,0.843,4.076C28.962,14.99,30,13,32,13c1,0,1.477,1.99,2.729,1.99   c0,0,2.009,0.27,0.975-2.038s-1.322-3.145-1.95-4.076c-0.421-0.625-1.384-1.611-2.925,0C30.118,9.619,28.879,10.914,26.929,10.914z   "/>
	<path style="fill:#9CCC65;" d="M20.071,10.914c3.9,0,0.975,4.076-0.843,4.076C18.038,14.99,17,13,15,13c-1,0-1.477,1.99-2.729,1.99   c0,0-2.009,0.27-0.975-2.038s1.322-3.145,1.95-4.076c0.421-0.625,1.384-1.611,2.925,0C16.882,9.619,18.121,10.914,20.071,10.914z"/>
</g>
<path style="fill:none;stroke:#616161;stroke-width:2;stroke-linecap:round;stroke-miterlimit:10;" d="M14,31c0,0-1,2,1,4"/>
</svg>