<svg xmlns="http://www.w3.org/2000/svg" xmlns:xlink="http://www.w3.org/1999/xlink" viewBox="0 0 48 48" version="1.1" width="48" height="48">
<g id="surface1">
<path style=" fill:#D6A7BA;" d="M 14 26 C 14 28.210938 13.210938 30 11 30 C 8.789063 30 7 27.210938 7 25 C 7 19 7 19 11 22 C 15 25 14 23.789063 14 26 "/>
<path style=" fill:#D6A7BA;" d="M 34 26 C 34 28.210938 34.789063 30 37 30 C 39.210938 30 41 27.210938 41 25 C 41 19 41 19 37 22 C 33 25 34 23.789063 34 26 "/>
<path style=" fill:#EAC5D3;" d="M 37 19 C 37 6.273438 11 9.714844 11 18 L 11 28 C 11 36.285156 19 45 24 45 C 29 45 37 37.285156 37 29 Z "/>
<path style=" fill:#37474F;" d="M 24 3 C 11 3 9 10.609375 9 20 L 9 21 L 11 25 C 11 25 11 25 11 22 C 11 11 22 10 24 19.878906 C 26 10 37 10.609375 37 21.609375 C 37 24.609375 37 24.609375 37 24.609375 L 39 21 L 39 19.609375 C 39 11.617188 38 3 24 3 "/>
<path style=" fill:#DD2C00;" d="M 35 23 C 34 26 31.582031 27.667969 30 28 C 30 28 27.410156 28.183594 27 25.496094 L 35 23 "/>
<path style=" fill:#DD2C00;" d="M 13 23 C 14 26 16.417969 27.667969 18 28 C 18 28 20.589844 28.183594 21 25.496094 L 13 23 "/>
<path style=" fill:#AD1457;" d="M 24 38 C 21 38 17 35 17 35 L 31 35 C 31 35 27 38 24 38 Z "/>
<path style=" fill:#FFFFFF;" d="M 22 35 L 20 42 L 20 35 Z "/>
<path style=" fill:#FFFFFF;" d="M 26 35 L 28 42 L 28 35 Z "/>
</g>
</svg>